<?xml version="1.0" encoding="UTF-8" standalone="no"?>
<!-- Created with Inkscape (http://www.inkscape.org/) -->

<svg
   width="506.112mm"
   height="92.457001mm"
   viewBox="0 0 506.112 92.457001"
   version="1.1"
   id="svg1"
   inkscape:version="1.3.2 (091e20ef0f, 2023-11-25)"
   sodipodi:docname="megabold.svg"
   inkscape:export-filename="megabold.png"
   inkscape:export-xdpi="96"
   inkscape:export-ydpi="96"
   xmlns:inkscape="http://www.inkscape.org/namespaces/inkscape"
   xmlns:sodipodi="http://sodipodi.sourceforge.net/DTD/sodipodi-0.dtd"
   xmlns="http://www.w3.org/2000/svg"
   xmlns:svg="http://www.w3.org/2000/svg">
  <sodipodi:namedview
     id="namedview1"
     pagecolor="#ffffff"
     bordercolor="#000000"
     borderopacity="0.25"
     inkscape:showpageshadow="2"
     inkscape:pageopacity="0.0"
     inkscape:pagecheckerboard="0"
     inkscape:deskcolor="#d1d1d1"
     inkscape:document-units="mm"
     inkscape:zoom="0.38342829"
     inkscape:cx="891.95296"
     inkscape:cy="3.9120744"
     inkscape:window-width="1600"
     inkscape:window-height="873"
     inkscape:window-x="0"
     inkscape:window-y="0"
     inkscape:window-maximized="1"
     inkscape:current-layer="g27"
     inkscape:export-bgcolor="#ffffffff" />
  <defs
     id="defs1" />
  <g
     inkscape:label="Layer 1 copy"
     inkscape:groupmode="layer"
     id="g27"
     transform="translate(32.474123,-20.948843)">
    <path
       id="path18"
       style="font-weight:bold;font-size:25.4px;line-height:0;font-family:'Liberation Mono';-inkscape-font-specification:'Liberation Mono, Bold';letter-spacing:0px;word-spacing:0px;fill:none;stroke:#ff0000;stroke-width:2.64583;stroke-dasharray:none;stroke-dashoffset:0;stroke-opacity:1"
       d="m 399.31811,42.386546 c -5.51627,0 -11.03255,0 -16.54883,0 4.67644,17.113933 9.35287,34.227865 14.0293,51.341797 10.1513,-0.04516 20.30549,0.108964 30.45468,-0.122607 3.22795,-0.16664 6.44462,-0.518146 9.58165,-1.238296 4.77916,-1.132381 9.77569,-3.090036 13.09475,-6.941835 1.99476,-2.240958 3.2979,-5.11227 3.60927,-8.050239 0.29171,-2.129684 0.19151,-4.271594 -0.122,-6.290142 -0.97757,-5.801704 -3.38242,-11.461208 -7.42123,-15.799519 -3.75591,-4.224328 -8.78879,-7.091755 -14.05721,-9.002422 -7.34245,-2.64174 -15.15001,-3.570647 -22.87855,-3.823059 -3.24638,-0.09884 -6.4944,-0.08177 -9.74183,-0.07368 z m 7.89063,8.671875 c 6.00298,0.05365 12.24665,0.667638 17.59308,3.615875 4.30219,2.43652 7.43044,6.653075 8.90125,11.338769 1.05309,3.106105 1.69851,6.442366 1.29742,9.724007 -0.41196,2.902644 -2.11701,5.671768 -4.77271,7.019633 -3.99819,2.281247 -8.75219,2.288506 -13.22256,2.293904 -1.41719,0 -2.83437,0 -4.25156,0 -3.09366,-11.329332 -6.18983,-22.657985 -9.28711,-33.986328 1.2474,0.0015 2.49479,-0.0028 3.74219,-0.0059 z" />
    <path
       id="path19"
       style="font-weight:bold;font-size:25.4px;line-height:0;font-family:'Liberation Mono';-inkscape-font-specification:'Liberation Mono, Bold';letter-spacing:0px;word-spacing:0px;fill:none;stroke:#ff0000;stroke-width:2.64583;stroke-dasharray:none;stroke-dashoffset:0;stroke-opacity:1"
       d="m 313.72241,93.728343 c 6.10872,0 12.21745,0 18.32617,0 0.76137,-4.186794 1.52032,-8.374029 2.2832,-12.560547 9.44271,0 18.88542,0 28.32813,0 3.04988,4.186559 6.09889,8.373746 9.14844,12.560547 6.08789,0 12.17578,0 18.26367,0 -13.82943,-17.113932 -27.65886,-34.227864 -41.48828,-51.341797 -7.1237,0 -14.2474,0 -21.3711,0 -4.49674,17.113933 -8.99349,34.227865 -13.49023,51.341797 z m 27.4668,-40.927734 c 5.12519,6.630831 10.23817,13.270977 15.33984,19.919922 -6.88607,0 -13.77214,0 -20.6582,0 1.54497,-6.937051 3.08714,-13.874733 4.6289,-20.8125 0.22982,0.297526 0.45964,0.595052 0.68946,0.892578 z" />
    <path
       id="path20"
       style="font-weight:bold;font-size:25.4px;line-height:0;font-family:'Liberation Mono';-inkscape-font-specification:'Liberation Mono, Bold';letter-spacing:0px;word-spacing:0px;fill:none;stroke:#ff0000;stroke-width:2.64583;stroke-dasharray:none;stroke-dashoffset:0;stroke-opacity:1"
       d="m 251.29052,42.386392 c -7.18618,6.51e-4 -14.37219,0.0014 -21.55837,0.0021 4.67644,17.113248 9.35269,34.226773 14.02912,51.340018 h 0.0191 l 1.77767,6.35879 h -66.9308 l 1.36116,6.05027 h 68.43355 c 3.9139,0.0837 12.01542,-0.0801 10.89907,-5.88853 l -1.94355,-6.52053 h 0.0537 c 0.016,-0.16861 -9.0444,-34.152954 -9.0444,-34.152954 1.87774,1.863821 11.6718,13.646656 16.97622,20.451465 h 13.54698 c 1.75718,-7.476611 3.47711,-14.961736 5.29683,-22.423437 3.3181,12.031064 6.55287,24.08023 9.82007,36.124926 h 13.79089 c -4.677,-17.113929 -9.35405,-34.228219 -14.03112,-51.342118 h -20.85713 c -0.52914,4.327411 -1.5914,8.56553 -2.34249,12.856579 -0.70639,3.628011 -1.39591,7.259659 -2.09134,10.889775 -5.7322,-7.917399 -11.47059,-15.830673 -17.20516,-23.746354 z" />
    <path
       id="path21"
       style="font-weight:bold;font-size:25.4px;line-height:0;font-family:'Liberation Mono';-inkscape-font-specification:'Liberation Mono, Bold';letter-spacing:0px;word-spacing:0px;fill:none;stroke:#ff0000;stroke-width:2.64583;stroke-dasharray:none;stroke-dashoffset:0;stroke-opacity:1"
       d="m 174.16834,42.388499 c 0,0 1.57943,5.783855 2.36914,8.675782 h 13.40954 c 3.09365,11.329332 6.18983,22.657984 9.28711,33.986328 H 179.906 c 0.79037,2.892578 1.58073,5.785156 2.3711,8.677734 h 56.91211 c -0.79037,-2.892578 -1.58073,-5.785156 -2.3711,-8.677734 h -19.32812 c -3.09366,-11.329332 -6.18984,-22.657985 -9.28711,-33.986328 h 11.33098 c -0.79036,-2.892578 -1.58073,-5.785157 -2.37109,-8.677735 -18.97005,6.51e-4 -42.72422,0.0013 -42.99443,0.002 z"
       sodipodi:nodetypes="cccccccccccccc" />
    <path
       id="path22"
       style="font-weight:bold;font-size:25.4px;line-height:0;font-family:'Liberation Mono';-inkscape-font-specification:'Liberation Mono, Bold';letter-spacing:0px;word-spacing:0px;fill:none;stroke:#ff0000;stroke-width:2.64583;stroke-dasharray:none;stroke-dashoffset:0;stroke-opacity:1"
       d="m 100.75952,93.728343 c 6.10872,0 12.21745,0 18.32617,0 0.76137,-4.186794 1.52032,-8.374029 2.2832,-12.560547 9.44401,0 18.88802,0 28.33203,0 3.04496,4.187769 6.09266,8.373545 9.13868,12.560547 6.08984,0 12.17968,0 18.26953,0 -13.83008,-17.113932 -27.66016,-34.227864 -41.49024,-51.341797 -7.12304,0 -14.24609,0 -21.36914,0 -4.49674,17.113933 -8.99349,34.227865 -13.49023,51.341797 z m 27.25976,-41.693359 c 5.20478,6.882226 10.38655,13.777261 15.55664,20.685547 -6.88932,0 -13.77864,0 -20.66796,0 1.47062,-7.206514 2.93858,-14.41358 4.40429,-21.621094 0.23568,0.311849 0.47136,0.623698 0.70703,0.935547 z" />
    <path
       id="path23"
       style="font-weight:bold;font-size:25.4px;line-height:0;font-family:'Liberation Mono';-inkscape-font-specification:'Liberation Mono, Bold';letter-spacing:0px;word-spacing:0px;fill:none;stroke:#ff0000;stroke-width:2.64583;stroke-dasharray:none;stroke-dashoffset:0;stroke-opacity:1"
       d="m 38.032957,42.390452 c -8.363048,0.01042 -16.738378,-0.02606 -25.09375,0.01367 -0.833652,0.277145 -1.743887,0.01495 -2.610547,0.109375 h -25.623828 l 2.341797,7.523438 33.18671,-0.0916 c 0,0 -4.561961,7.858788 -4.239793,7.435355 h -26.665667 l 2.341796,7.523437 h 33.358803 l -3.819215,6.75586 H -6.320559 l 2.341797,7.523437 h 32.773577 l -3.337831,6.980469 H -1.72095 l 2.34179703,7.523438 c 9.09451617,0.01717 18.19013497,-0.03432 27.28396297,0.02568 5.976334,0.03709 11.954015,0.004 17.930881,0.01533 C 44.04893,87.19457 42.264618,80.660128 40.476316,74.126779 h 10.751953 c 7.790177,6.534077 15.58076,13.067671 23.371094,19.601562 h 20.625 C 86.006971,86.375401 76.789125,79.023036 67.572019,71.669742 c 2.561671,-0.635364 5.053641,-1.252186 7.443048,-2.48389 2.719048,-1.399795 5.378861,-3.594643 6.125312,-6.693844 C 82.006914,58.885846 80.517715,55.128689 78.271769,52.32893 75.053988,48.337993 70.179411,46.200748 65.377383,44.782162 59.140001,43.00893 52.598351,42.568197 46.17829,42.414247 c -2.714943,-0.04375 -5.430167,-0.03532 -8.145333,-0.02379 z m 5.626953,8.701172 c 4.630672,0.06513 9.397689,0.114043 13.794922,1.740235 2.606503,0.985762 5.03444,3.138284 5.40625,6.027343 0.267756,1.752325 -0.574876,3.613036 -2.156332,4.457248 -3.127345,1.775304 -6.837249,1.937721 -10.346552,2.056532 -4.085705,0.0995 -8.172598,-0.0074 -12.258835,0.04091 -1.305149,-4.770707 -2.607552,-9.542166 -3.914063,-14.3125 3.158352,0.02255 6.316253,-0.0037 9.47461,-0.0098 z"
       sodipodi:nodetypes="sccccccccccccccccccccccccccccssccccccccc" />
    <rect
       style="fill:none;fill-opacity:1;stroke:#ff0000;stroke-width:2.78275;stroke-dasharray:none;stroke-dashoffset:0;stroke-opacity:1"
       id="rect27"
       width="245.60312"
       height="6.7548308"
       x="-29.862482"
       y="32.143475"
       transform="matrix(1,0,0.33096687,0.94364238,0,0)" />
  </g>
</svg>
